<svg width="420" height="160" viewBox="0 0 420 160" xmlns="http://www.w3.org/2000/svg"> <!-- Background --> <rect width="420" height="160" rx="24" fill="#050818"/> <!-- Brain chat icon --> <g transform="translate(40,26)"> <!-- Outline --> <path d="M60 10 C46 10 35 21 35 35 L35 48 C25 52 18 62 18 73 L18 96 C18 112 30 124 46 124 L60 124 L60 150 L78 124 L94 124 C110 124 122 112 122 96 L122 73 C122 62 115 52 105 48 L105 35 C105 21 94 10 80 10 Z" fill="none" stroke="#FF4AB8" stroke-width="8" stroke-linecap="round" stroke-linejoin="round" /> <!-- Inner folds --> <path d="M60 26 C52 26 46 32 46 40 L46 56 C46 62 42 66 38 69" fill="none" stroke="#FF4AB8" stroke-width="6" stroke-linecap="round" /> <path d="M80 26 C88 26 94 32 94 40 L94 56 C94 62 98 66 102 69" fill="none" stroke="#FF4AB8" stroke-width="6" stroke-linecap="round" /> </g> <!-- Text --> <g fill="#F5F5F5" font-family="Inter, system-ui, -apple-system, BlinkMacSystemFont, 'Segoe UI', sans-serif" font-weight="700"> <text x="190" y="68" font-size="44">AI</text> <text x="190" y="118" font-size="40">COACH</text> </g> </svg>